# xmcd
#
# Track frame offsets:
#	150
#	12321
#	24464
#	38281
#	52837
#	65522
#	79117
#	93144
#	107439
#	118688
#	132606
#	145550
#	157711
#	170427
#	183378
#	197378
#	210740
#	224463
#	237382
#	252516
#	267101
#	281251
#	294534
#	307637
#
# Disc length: 4288 seconds
#
# Revision: 1
# Processed by: cddbd v1.5.2PL0 Copyright (c) Steve Scherf et al.
# Submitted via: audiograbber 1.83.01
#
DISCID=3c10be18
DTITLE=Wolfgang Hohlbein - Sturm CD 3
DYEAR=2007
DGENRE=Hörbuch
TTITLE0=51
TTITLE1=52
TTITLE2=53
TTITLE3=54
TTITLE4=55
TTITLE5=56
TTITLE6=57
TTITLE7=58
TTITLE8=59
TTITLE9=60
TTITLE10=61
TTITLE11=62
TTITLE12=63
TTITLE13=64
TTITLE14=65
TTITLE15=66
TTITLE16=67
TTITLE17=68
TTITLE18=69
TTITLE19=70
TTITLE20=71
TTITLE21=72
TTITLE22=73
TTITLE23=74
EXTD=
EXTT0=
EXTT1=
EXTT2=
EXTT3=
EXTT4=
EXTT5=
EXTT6=
EXTT7=
EXTT8=
EXTT9=
EXTT10=
EXTT11=
EXTT12=
EXTT13=
EXTT14=
EXTT15=
EXTT16=
EXTT17=
EXTT18=
EXTT19=
EXTT20=
EXTT21=
EXTT22=
EXTT23=
PLAYORDER=
